<?xml version="1.0" standalone="no"?>
<!DOCTYPE svg PUBLIC "-//W3C//DTD SVG 20010904//EN"
 "http://www.w3.org/TR/2001/REC-SVG-20010904/DTD/svg10.dtd">
<svg version="1.0" xmlns="http://www.w3.org/2000/svg"
 width="340.000000pt" height="340.000000pt" viewBox="0 0 340.000000 340.000000"
 preserveAspectRatio="xMidYMid meet">
<metadata>
Created by potrace 1.11, written by Peter Selinger 2001-2013
</metadata>
<g transform="translate(0.000000,340.000000) scale(0.100000,-0.100000)"
fill="#000000" stroke="none">
<path d="M1559 3396 c-2 -2 -32 -7 -67 -10 -166 -16 -391 -84 -553 -167 -517
-265 -856 -749 -928 -1324 -10 -74 -7 -366 4 -425 39 -220 76 -343 155 -505
147 -302 346 -524 637 -708 56 -35 149 -84 205 -107 57 -23 112 -46 123 -51
27 -11 148 -44 210 -58 51 -11 75 -15 155 -27 66 -9 306 -11 370 -2 30 4 77
10 104 13 27 4 58 9 70 11 12 3 35 7 51 10 68 12 246 78 356 133 513 257 863
748 933 1311 15 122 13 352 -4 460 -112 705 -629 1256 -1324 1411 -50 11 -107
22 -126 25 -49 6 -366 14 -371 10z m333 -130 c540 -73 998 -404 1228 -889 105
-222 153 -433 153 -672 -1 -325 -88 -611 -267 -880 -74 -109 -237 -295 -259
-295 -7 1 -147 69 -312 153 -361 183 -345 168 -345 330 0 108 0 110 33 156 51
70 100 158 132 236 21 50 44 84 81 120 76 73 84 103 81 292 -2 149 -4 161 -29
208 -26 49 -26 53 -24 225 1 112 -3 198 -11 240 -53 262 -287 411 -648 412
-66 1 -138 -2 -160 -6 -219 -36 -365 -122 -446 -261 -54 -93 -62 -141 -64
-365 -2 -201 -3 -206 -29 -263 -27 -57 -28 -60 -24 -220 3 -171 9 -193 58
-245 12 -12 32 -53 45 -91 29 -87 84 -201 131 -271 35 -53 36 -58 38 -149 1
-99 -11 -153 -41 -181 -17 -17 -34 -27 -188 -111 -38 -21 -140 -76 -225 -123
l-155 -86 -75 78 c-382 396 -528 938 -398 1472 107 440 413 822 825 1028 176
89 374 145 558 159 44 3 81 7 83 8 5 4 213 -3 254 -9z m3 -503 c150 -30 253
-101 307 -211 l33 -66 3 -241 3 -240 26 -27 c25 -26 26 -32 27 -158 1 -72 -3
-145 -9 -162 -8 -26 -46 -56 -87 -70 -4 -2 -17 -30 -29 -63 -32 -93 -95 -213
-152 -290 l-51 -70 1 -141 c1 -242 7 -249 390 -439 155 -77 282 -142 282 -145
1 -3 -35 -29 -79 -57 -134 -90 -335 -176 -495 -213 -425 -100 -870 -21 -1233
217 -45 30 -82 56 -82 58 0 2 108 63 295 165 319 174 334 194 334 434 l-1 118
-44 66 c-67 97 -136 245 -150 321 -6 31 -22 61 -33 61 -5 0 -17 12 -27 27 -14
22 -18 52 -19 150 -3 147 0 162 31 198 24 28 24 30 24 249 -1 228 2 252 39
325 56 108 176 184 333 210 83 13 286 10 363 -6z"/>
</g>
</svg>
